<svg width="118" height="24" viewBox="0 0 118 24" fill="none" xmlns="http://www.w3.org/2000/svg">
<path d="M5.68306 20L6.25137 16.4706L0 17.4856L2.84153 5.88509L9.51913 4L6.25137 16.4706L26 12.2522L24.8634 16.4706L5.68306 20Z" fill="#E2E2E2"/>
<path d="M41.2642 19V4.45455H44.3395V16.4645H50.5753V19H41.2642ZM59.5508 14.3551V8.09091H62.5763V19H59.6715V17.0185H59.5579C59.3117 17.6577 58.9021 18.1714 58.3292 18.5597C57.761 18.9479 57.0674 19.142 56.2482 19.142C55.5191 19.142 54.8775 18.9763 54.3235 18.6449C53.7695 18.3134 53.3363 17.8423 53.0238 17.2315C52.716 16.6207 52.5598 15.8892 52.555 15.0369V8.09091H55.5806V14.4972C55.5853 15.1411 55.7582 15.6501 56.0991 16.0241C56.44 16.3982 56.8969 16.5852 57.4698 16.5852C57.8344 16.5852 58.1753 16.5024 58.4925 16.3366C58.8098 16.1662 59.0655 15.9152 59.2596 15.5838C59.4585 15.2524 59.5555 14.8428 59.5508 14.3551ZM67.5249 8.09091L69.5277 11.9048L71.5803 8.09091H74.6839L71.5234 13.5455L74.7692 19H71.6797L69.5277 15.2287L67.4112 19H64.2862L67.5249 13.5455L64.3999 8.09091H67.5249ZM76.8075 19V8.09091H78.4837V19H76.8075ZM77.6598 6.27273C77.3331 6.27273 77.0514 6.16146 76.8146 5.93892C76.5826 5.71638 76.4666 5.44886 76.4666 5.13636C76.4666 4.82386 76.5826 4.55634 76.8146 4.33381C77.0514 4.11127 77.3331 4 77.6598 4C77.9865 4 78.2659 4.11127 78.4979 4.33381C78.7346 4.55634 78.853 4.82386 78.853 5.13636C78.853 5.44886 78.7346 5.71638 78.4979 5.93892C78.2659 6.16146 77.9865 6.27273 77.6598 6.27273ZM83.2298 12.4375V19H81.5536V8.09091H83.1729V9.79545H83.315C83.5707 9.24148 83.9589 8.7964 84.4798 8.46023C85.0006 8.11932 85.6729 7.94886 86.4968 7.94886C87.2354 7.94886 87.8817 8.10038 88.4357 8.40341C88.9897 8.7017 89.4206 9.15625 89.7283 9.76705C90.0361 10.3731 90.19 11.1402 90.19 12.0682V19H88.5138V12.1818C88.5138 11.3248 88.2913 10.6572 87.8462 10.179C87.4012 9.69602 86.7904 9.45455 86.0138 9.45455C85.4788 9.45455 85.0006 9.57055 84.5792 9.80256C84.1625 10.0346 83.8335 10.3731 83.592 10.8182C83.3505 11.2633 83.2298 11.803 83.2298 12.4375ZM96.4631 19.2557C95.7718 19.2557 95.1444 19.1255 94.581 18.8651C94.0175 18.5999 93.5701 18.2188 93.2386 17.7216C92.9072 17.2197 92.7415 16.6136 92.7415 15.9034C92.7415 15.2784 92.8646 14.7718 93.1108 14.3835C93.357 13.9905 93.6861 13.6828 94.098 13.4602C94.5099 13.2377 94.9645 13.072 95.4616 12.9631C95.9635 12.8494 96.4678 12.7595 96.9744 12.6932C97.6373 12.608 98.1747 12.544 98.5866 12.5014C99.0033 12.4541 99.3063 12.3759 99.4957 12.267C99.6899 12.1581 99.7869 11.9687 99.7869 11.6989V11.642C99.7869 10.9413 99.5952 10.3968 99.2116 10.0085C98.8329 9.62027 98.2576 9.42614 97.4858 9.42614C96.6856 9.42614 96.0582 9.60133 95.6037 9.9517C95.1491 10.3021 94.8295 10.6761 94.6449 11.0739L93.054 10.5057C93.3381 9.8428 93.7169 9.3267 94.1903 8.95739C94.6686 8.58333 95.1894 8.32292 95.7528 8.17614C96.321 8.02462 96.8797 7.94886 97.429 7.94886C97.7794 7.94886 98.1818 7.99148 98.6364 8.0767C99.0956 8.1572 99.5384 8.32528 99.9645 8.58097C100.395 8.83665 100.753 9.22254 101.037 9.73864C101.321 10.2547 101.463 10.946 101.463 11.8125V19H99.7869V17.5227H99.7017C99.5881 17.7595 99.3987 18.0128 99.1335 18.2827C98.8684 18.5526 98.5156 18.7822 98.0753 18.9716C97.6349 19.161 97.0975 19.2557 96.4631 19.2557ZM96.7188 17.75C97.3816 17.75 97.9403 17.6198 98.3949 17.3594C98.8542 17.099 99.1998 16.7628 99.4318 16.3509C99.6686 15.9389 99.7869 15.5057 99.7869 15.0511V13.517C99.7159 13.6023 99.5597 13.6804 99.3182 13.7514C99.0814 13.8177 98.8068 13.8769 98.4943 13.929C98.1866 13.9763 97.8859 14.0189 97.5923 14.0568C97.3035 14.09 97.0691 14.1184 96.8892 14.142C96.4536 14.1989 96.0464 14.2912 95.6676 14.419C95.2936 14.5421 94.9905 14.7292 94.7585 14.9801C94.5313 15.2263 94.4176 15.5625 94.4176 15.9886C94.4176 16.571 94.633 17.0114 95.0639 17.3097C95.4995 17.6032 96.0511 17.75 96.7188 17.75Z" fill="#E2E2E2"/>
</svg>
